<svg width="800" height="350" xmlns="http://www.w3.org/2000/svg">
  <!-- White Background -->
  <rect width="100%" height="100%" fill="white"/>

  <defs>
    <style>
      .service-box { fill: #E3F2FD; stroke: #1976D2; stroke-width: 2; }
      .db-box { fill: #F3E5F5; stroke: #7B1FA2; stroke-width: 2; }
      .stream-box { fill: #E8F5E8; stroke: #388E3C; stroke-width: 3; }
      .text { font-family: Arial, sans-serif; font-size: 12px; text-anchor: middle; }
      .title { font-family: Arial, sans-serif; font-size: 14px; font-weight: bold; text-anchor: middle; }
      .arrow { stroke: #333; stroke-width: 2; fill: none; marker-end: url(#arrowhead); }
    </style>
    <marker id="arrowhead" markerWidth="10" markerHeight="7" refX="9" refY="3.5" orient="auto">
      <polygon points="0 0, 10 3.5, 0 7" fill="#333" />
    </marker>
  </defs>

  <!-- Title -->
  <text x="380" y="25" class="title" font-size="18">RabbitMQ Streams Architecture</text>

  <!-- Customer Service -->
  <rect x="50" y="60" width="160" height="220" class="service-box" rx="10"/>
  <text x="130" y="85" class="title">Customer Service</text>

  <!-- Customer DB -->
  <rect x="70" y="110" width="120" height="70" class="db-box" rx="5"/>
  <text x="130" y="135" class="title">Customer DB</text>
  <text x="130" y="155" class="text">Persistent Storage</text>

  <!-- Customer API -->
  <rect x="70" y="220" width="120" height="40" class="service-box" rx="5"/>
  <text x="130" y="245" class="title">REST API</text>

  <!-- RabbitMQ Streams (Source of Truth) -->
  <rect x="280" y="60" width="200" height="200" class="stream-box" rx="10"/>
  <text x="380" y="85" class="title">RabbitMQ Streams</text>
  <text x="380" y="105" class="title" fill="#2E7D32">(SOURCE OF TRUTH)</text>

  <!-- Stream Details -->
  <rect x="300" y="130" width="160" height="90" class="stream-box" rx="5" stroke="#2E7D32" stroke-width="2"/>
  <text x="380" y="155" class="title">Stream: "customer"</text>
  <text x="380" y="175" class="text">Event Ordering</text>
  <text x="380" y="190" class="text">Event Durability</text>
  <text x="380" y="205" class="text">Event Replay</text>

  <!-- Order Service -->
  <rect x="550" y="60" width="170" height="220" class="service-box" rx="10"/>
  <text x="635" y="85" class="title">Order Service</text>

  <!-- Order DB -->
  <rect x="570" y="110" width="130" height="90" class="db-box" rx="5"/>
  <text x="635" y="135" class="title">Order DB</text>
  <text x="635" y="155" class="text">Persistent Storage</text>
  <text x="635" y="175" class="text">(Orders + Customers)</text>

  <!-- Order API -->
  <rect x="570" y="220" width="130" height="40" class="service-box" rx="5"/>
  <text x="635" y="245" class="title">REST API</text>

  <!-- Arrows -->
  <!-- Customer Service to Stream -->
  <line x1="210" y1="150" x2="280" y2="150" class="arrow"/>
  <text x="245" y="135" class="text" font-size="12">Publish</text>

  <!-- Stream to Order Service -->
  <line x1="480" y1="150" x2="550" y2="150" class="arrow"/>
  <text x="515" y="135" class="text" font-size="12">Consume</text>

  <!-- Note -->
  <text x="395" y="310" class="text" font-size="11">Events in streams are the authoritative record of what happened</text>
  <text x="395" y="330" class="text" font-size="11">Both services maintain local state synchronized via events</text>
</svg>
