<svg width="800" height="350" xmlns="http://www.w3.org/2000/svg">
  <!-- White Background -->
  <rect width="100%" height="100%" fill="white"/>

  <defs>
    <style>
      .service-box { fill: #E3F2FD; stroke: #1976D2; stroke-width: 2; }
      .db-box { fill: #F3E5F5; stroke: #7B1FA2; stroke-width: 2; }
      .stream-box { fill: #E8F5E8; stroke: #388E3C; stroke-width: 2; }
      .text { font-family: Arial, sans-serif; font-size: 12px; text-anchor: middle; }
      .title { font-family: Arial, sans-serif; font-size: 14px; font-weight: bold; text-anchor: middle; }
      .arrow { stroke: #333; stroke-width: 2; fill: none; marker-end: url(#arrowhead); }
    </style>
    <marker id="arrowhead" markerWidth="8" markerHeight="6" refX="7" refY="3" orient="auto">
      <polygon points="0 0, 8 3, 0 6" fill="#333" />
    </marker>
  </defs>

  <!-- Title -->
  <text x="410" y="25" class="title" font-size="18">Event Flow: Customer → Stream → Order</text>

  <!-- Step 1: Customer Service -->
  <rect x="70" y="70" width="180" height="120" class="service-box" rx="10"/>
  <text x="160" y="95" class="title">Customer Service</text>
  <text x="160" y="115" class="text">API Endpoint</text>
  <text x="160" y="135" class="text">Business Logic</text>

  <!-- Customer DB -->
  <rect x="70" y="220" width="180" height="60" class="db-box" rx="5"/>
  <text x="160" y="235" class="title">Customer DB</text>
  <text x="160" y="255" class="text">Persistent Storage</text>

  <!-- Step 2: RabbitMQ Stream -->
  <rect x="320" y="70" width="200" height="180" class="stream-box" rx="10"/>
  <text x="420" y="95" class="title">RabbitMQ Stream</text>
  <text x="420" y="115" class="text">"customer"</text>

  <!-- Events in Stream -->
  <rect x="340" y="140" width="160" height="45" fill="#C8E6C9" stroke="#4CAF50" stroke-width="1" rx="3"/>
  <text x="420" y="155" class="text" font-size="11">customer.created</text>
  <text x="420" y="170" class="text" font-size="11">customer.address.updated</text>

  <rect x="340" y="195" width="160" height="35" fill="#FFECB3" stroke="#FFC107" stroke-width="1" rx="3"/>
  <text x="420" y="210" class="text" font-size="11">Event Ordering</text>
  <text x="420" y="225" class="text" font-size="11">Durability</text>

  <!-- Step 3: Order Service -->
  <rect x="590" y="70" width="180" height="120" class="service-box" rx="10"/>
  <text x="680" y="95" class="title">Order Service</text>
  <text x="680" y="115" class="text">API Endpoint</text>
  <text x="680" y="135" class="text">Event Consumer</text>
  <text x="680" y="155" class="text" font-size="11">Local Validation</text>
  <text x="680" y="175" class="text" font-size="11">No Remote Calls</text>

  <!-- Order DB -->
  <rect x="590" y="220" width="180" height="60" class="db-box" rx="5"/>
  <text x="680" y="235" class="title">Order DB</text>
  <text x="680" y="255" class="text">Persistent Storage</text>
  <text x="680" y="275" class="text">(Orders + Customers)</text>

  <!-- Flow Arrows -->
  <!-- Customer Service to DB -->
  <line x1="160" y1="190" x2="160" y2="220" class="arrow"/>

  <!-- Customer Service to Stream -->
  <line x1="250" y1="120" x2="320" y2="120" class="arrow"/>
  <text x="280" y="110" class="text" font-size="11">Publish</text>

  <!-- Stream to Order Service -->
  <line x1="520" y1="120" x2="590" y2="120" class="arrow"/>
  <text x="555" y="110" class="text" font-size="11">Consume</text>

  <!-- Order Service to DB -->
  <line x1="680" y1="190" x2="680" y2="220" class="arrow"/>

  <!-- Flow Labels -->
  <text x="160" y="310" class="text" font-size="12">1. Customer Action</text>
  <text x="420" y="310" class="text" font-size="12">2. Event Streaming</text>
  <text x="680" y="310" class="text" font-size="12">3. Data Sync and Processing</text>

  <!-- Benefits -->
  <text x="410" y="340" class="text" font-size="11">Events provide reliable, ordered data synchronization with service independence</text>
</svg>
